<svg viewBox="0 0 240 200" fill="none" xmlns="http://www.w3.org/2000/svg" aria-hidden="true">
  <defs>
    <linearGradient id="ps-card" x1="0" y1="0" x2="0" y2="1">
      <stop offset="0" stop-color="#fff"/>
      <stop offset="1" stop-color="#f8fafc"/>
    </linearGradient>
    <linearGradient id="ps-mag" x1="0" y1="0" x2="0" y2="1">
      <stop offset="0" stop-color="#3b82f6"/>
      <stop offset="1" stop-color="#6366f1"/>
    </linearGradient>
    <filter id="ps-shadow" x="-20%" y="-20%" width="140%" height="140%">
      <feGaussianBlur stdDeviation="5"/>
      <feOffset dy="3"/>
      <feComponentTransfer><feFuncA type="linear" slope=".18"/></feComponentTransfer>
      <feMerge><feMergeNode/><feMergeNode in="SourceGraphic"/></feMerge>
    </filter>
  </defs>
  <circle cx="120" cy="100" r="80" fill="#dbeafe" opacity=".6"/>
  <g filter="url(#ps-shadow)">
    <rect x="50" y="40" width="120" height="120" rx="10" fill="url(#ps-card)"/>
    <rect x="50" y="40" width="120" height="32" rx="10" fill="#3b82f6"/>
    <rect x="60" y="52" width="60" height="6" rx="3" fill="#fff"/>
    <rect x="60" y="62" width="40" height="4" rx="2" fill="#fff" opacity=".7"/>
    <g>
      <rect x="62" y="86" width="96" height="10" rx="3" fill="#e0e7ff"/>
      <rect x="62" y="86" width="60" height="10" rx="3" fill="#6366f1"/>
      <circle cx="68" cy="91" r="2" fill="#fff"/>
    </g>
    <rect x="62" y="104" width="96" height="6" rx="2" fill="#e2e8f0"/>
    <rect x="62" y="116" width="80" height="6" rx="2" fill="#e2e8f0"/>
    <rect x="62" y="128" width="64" height="6" rx="2" fill="#e2e8f0"/>
    <rect x="62" y="140" width="48" height="6" rx="2" fill="#e2e8f0"/>
  </g>
  <g filter="url(#ps-shadow)" transform="rotate(-12 180 130)">
    <circle cx="180" cy="130" r="28" fill="none" stroke="url(#ps-mag)" stroke-width="6"/>
    <circle cx="180" cy="130" r="20" fill="#fff" opacity=".6"/>
    <rect x="200" y="148" width="22" height="6" rx="3" fill="url(#ps-mag)" transform="rotate(45 200 148)"/>
    <path d="M174 130l4 4 8-9" stroke="#3b82f6" stroke-width="2.5" stroke-linecap="round" stroke-linejoin="round" fill="none"/>
  </g>
  <path d="M40 30l2 6 6 2-6 2-2 6-2-6-6-2 6-2z" fill="#fbbf24"/>
  <circle cx="210" cy="60" r="3" fill="#a78bfa"/>
  <circle cx="35" cy="160" r="3" fill="#10b981"/>
</svg>
