<svg viewBox="0 0 240 200" fill="none" xmlns="http://www.w3.org/2000/svg" aria-hidden="true">
  <defs>
    <linearGradient id="pa-bubble1" x1="0" y1="0" x2="0" y2="1">
      <stop offset="0" stop-color="#3b82f6"/>
      <stop offset="1" stop-color="#6366f1"/>
    </linearGradient>
    <linearGradient id="pa-bubble2" x1="0" y1="0" x2="0" y2="1">
      <stop offset="0" stop-color="#8b5cf6"/>
      <stop offset="1" stop-color="#a78bfa"/>
    </linearGradient>
    <linearGradient id="pa-headset" x1="0" y1="0" x2="0" y2="1">
      <stop offset="0" stop-color="#1e3a8a"/>
      <stop offset="1" stop-color="#3b82f6"/>
    </linearGradient>
    <filter id="pa-shadow" x="-20%" y="-20%" width="140%" height="140%">
      <feGaussianBlur stdDeviation="5"/>
      <feOffset dy="3"/>
      <feComponentTransfer><feFuncA type="linear" slope=".18"/></feComponentTransfer>
      <feMerge><feMergeNode/><feMergeNode in="SourceGraphic"/></feMerge>
    </filter>
  </defs>
  <circle cx="120" cy="100" r="80" fill="#ede9fe" opacity=".6"/>

  <g filter="url(#pa-shadow)">
    <path d="M50 50 H140 a8 8 0 0 1 8 8 v40 a8 8 0 0 1 -8 8 H80 l-12 12 v-12 H50 a8 8 0 0 1 -8-8 V58 a8 8 0 0 1 8-8 Z" fill="url(#pa-bubble1)"/>
    <rect x="64" y="68" width="50" height="4" rx="2" fill="#fff"/>
    <rect x="64" y="78" width="64" height="4" rx="2" fill="#fff" opacity=".75"/>
    <rect x="64" y="88" width="40" height="4" rx="2" fill="#fff" opacity=".55"/>
  </g>
  <g filter="url(#pa-shadow)">
    <path d="M190 100 H110 a8 8 0 0 0 -8 8 v32 a8 8 0 0 0 8 8 h60 l12 12 v-12 h8 a8 8 0 0 0 8-8 V108 a8 8 0 0 0 -8-8 Z" fill="url(#pa-bubble2)"/>
    <rect x="118" y="118" width="50" height="4" rx="2" fill="#fff"/>
    <rect x="118" y="128" width="40" height="4" rx="2" fill="#fff" opacity=".75"/>
  </g>

  <g filter="url(#pa-shadow)" transform="translate(150 30)">
    <circle cx="30" cy="30" r="26" fill="url(#pa-headset)"/>
    <circle cx="30" cy="30" r="26" fill="none" stroke="#fff" stroke-opacity=".25"/>
    <path d="M14 32 a16 16 0 0 1 32 0 v6" stroke="#fbbf24" stroke-width="3" stroke-linecap="round" fill="none"/>
    <rect x="11" y="32" width="6" height="10" rx="2" fill="#fbbf24"/>
    <rect x="43" y="32" width="6" height="10" rx="2" fill="#fbbf24"/>
    <circle cx="30" cy="28" r="5" fill="#fff" opacity=".25"/>
    <path d="M22 36c2 4 14 4 16 0" stroke="#fff" stroke-width="2" stroke-linecap="round" fill="none"/>
  </g>

  <path d="M30 90l2 6 6 2-6 2-2 6-2-6-6-2 6-2z" fill="#fbbf24" opacity=".8"/>
  <circle cx="220" cy="160" r="4" fill="#10b981" opacity=".7"/>
  <circle cx="40" cy="170" r="3" fill="#3b82f6" opacity=".6"/>
</svg>
