<svg viewBox="0 0 64 64" fill="none" xmlns="http://www.w3.org/2000/svg" aria-hidden="true">
  <path d="M14 8h24l10 10v36a2 2 0 0 1-2 2H14a2 2 0 0 1-2-2V10a2 2 0 0 1 2-2Z" fill="#fff"/>
  <path d="M38 8v10h10" stroke="#0f172a" stroke-opacity=".35" stroke-width="1.5" fill="none"/>
  <path d="M19 24h18M19 30h22" stroke="#0f172a" stroke-opacity=".4" stroke-width="1.6" stroke-linecap="round"/>
  <circle cx="42" cy="40" r="7" fill="#10b981" fill-opacity=".18" stroke="#10b981" stroke-opacity=".7" stroke-width="1.4"/>
  <path d="M38 40l3 3 5-5" stroke="#10b981" stroke-width="2" stroke-linecap="round" stroke-linejoin="round" fill="none"/>
  <path d="M19 38c4-1 9 2 14 0" stroke="#0f172a" stroke-opacity=".5" stroke-width="2" stroke-linecap="round" fill="none"/>
  <path d="M48 50l4 6-3 1-1 3-3-6Z" fill="#fff" stroke="#0f172a" stroke-opacity=".3" stroke-width="1"/>
</svg>
