<svg viewBox="0 0 64 64" fill="none" xmlns="http://www.w3.org/2000/svg" aria-hidden="true">
  <path d="M32 10c-13 0-22 9-23 19h46c-1-10-10-19-23-19Z" fill="#fff"/>
  <path d="M32 10v19M19 29c0-9 5-17 13-19M45 29c0-9-5-17-13-19" stroke="#fff" stroke-opacity=".55" stroke-width="1.5" fill="none"/>
  <path d="M32 29v15c0 3-2 5-5 5s-5-2-5-5" stroke="#fff" stroke-width="2.5" stroke-linecap="round" fill="none"/>
  <circle cx="32" cy="29" r="2" fill="#fff"/>
  <path d="M14 38l-2 4M50 40l2 4M20 50l-1 3M44 50l1 3" stroke="#fff" stroke-opacity=".5" stroke-width="1.5" stroke-linecap="round"/>
</svg>
