<svg viewBox="0 0 64 64" fill="none" xmlns="http://www.w3.org/2000/svg" aria-hidden="true">
  <rect x="14" y="10" width="30" height="42" rx="3" fill="#fff"/>
  <rect x="14" y="10" width="30" height="42" rx="3" stroke="#fff" stroke-opacity=".4" stroke-width="1"/>
  <circle cx="29" cy="32" r="6.5" stroke="#0f172a" stroke-opacity=".5" stroke-width="1.6" fill="none"/>
  <path d="M22.5 32h13M29 25.5v13M24 28c2 3 8 3 10 0M24 36c2-3 8-3 10 0" stroke="#0f172a" stroke-opacity=".35" stroke-width="1.2" fill="none"/>
  <rect x="20" y="44" width="18" height="2" rx="1" fill="#0f172a" fill-opacity=".25"/>
  <path d="M48 16l10-2-3 8 4 1-9 6-3-3 4-3-3-7Z" fill="#fff" stroke="#fff" stroke-opacity=".3" stroke-linejoin="round" stroke-width="1"/>
  <path d="M40 50c4 1 9 1 13-1" stroke="#fff" stroke-opacity=".5" stroke-width="1.4" stroke-linecap="round" stroke-dasharray="2 3" fill="none"/>
</svg>
